<?xml version="1.0" encoding="iso-8859-1"?>
<!-- Generator: Adobe Illustrator 21.0.0, SVG Export Plug-In . SVG Version: 6.00 Build 0)  -->
<svg xmlns="http://www.w3.org/2000/svg" xmlns:xlink="http://www.w3.org/1999/xlink" version="1.1" id="Capa_1" x="0px" y="0px" viewBox="0 0 512 512" style="enable-background:new 0 0 512 512;" xml:space="preserve" width="512" height="512">
<g id="XMLID_424_">
	<g id="XMLID_2631_">
		<g id="XMLID_2632_">
			<g id="XMLID_2633_">
				<g id="XMLID_2634_">
					<g id="XMLID_2635_">
						<g id="XMLID_2636_">
							<g id="XMLID_2637_">
								<g id="XMLID_2638_">
									<g id="XMLID_2639_">
										<g id="XMLID_2640_">
											<g id="XMLID_2641_">
												<g id="XMLID_2642_">
													<g id="XMLID_2643_">
														<path id="XMLID_2644_" style="fill:#FF53A1;" d="M0,256C0,114.615,114.615,0,256,0s256,114.615,256,256                c0,77.863-34.761,147.607-89.612,194.56c0,0-102.866,22.44-166.388,22.44c-63.5,0-121.6,15.88-166.341-22.4                C34.781,403.647,0,333.885,0,256z"/>
													</g>
												</g>
											</g>
										</g>
									</g>
								</g>
							</g>
						</g>
					</g>
				</g>
			</g>
		</g>
	</g>
	<g id="XMLID_2169_">
		<path id="XMLID_2203_" style="fill:#E80C6A;" d="M511.332,274.461L292.6,55.776c-9.075-9.9-22.109-16.11-36.599-16.11    c-26.37,0-47.929,20.556-49.553,46.518c-64.435,28.786-46.559,114.874-46.559,114.874l0.043-0.019    c-5.357,3.997-8.55,10.632-7.782,17.724l1.703,15.723c0.353,3.261,1.51,6.247,3.24,8.796c-1.017,1.338-1.628,3.002-1.628,4.813    c0,2.484,1.137,4.704,2.919,6.165l59.741,59.365v40.447L218.12,354h-87.45c-22.65,0-41,18.36-41,41v55.591    C89.941,450.823,197.186,482,256,482c63.523,0,166.385-31.444,166.385-31.444C472.857,407.347,506.316,344.837,511.332,274.461z"/>
		<g id="XMLID_2108_">
			<circle id="XMLID_422_" style="fill:#FFDB2D;" cx="256" cy="89.329" r="49.662"/>
			<path id="XMLID_1375_" style="fill:#FDC000;" d="M305.66,89.33c0,27.43-22.23,49.66-49.66,49.66V39.67     c26.37,0,47.93,20.54,49.56,46.5C305.63,87.21,305.66,88.27,305.66,89.33z"/>
			<g id="XMLID_2750_">
				<g id="XMLID_2755_">
					<rect id="XMLID_2759_" x="218.123" y="308" style="fill:#FFC473;" width="75.737" height="94.667"/>
					<rect id="XMLID_2758_" x="256" y="308" style="fill:#FFAA20;" width="37.86" height="94.667"/>
					<path id="XMLID_1972_" style="fill:#FFFFFF;" d="M417.13,420.07v34.86C373.13,490.62,317.06,512,256,512       s-117.14-21.39-161.14-57.07v-34.86c0-36.49,29.58-66.07,66.06-66.07h57.2L256,394l37.86-40h57.21       C387.55,354,417.13,383.58,417.13,420.07z"/>
					<path id="XMLID_2009_" style="fill:#FFF5CB;" d="M417.13,420.07v34.86c-41.52,33.68-93.8,54.62-150.87,56.86       c-0.85,0.03-1.7,0.06-2.56,0.09c-0.8,0.03-1.6,0.05-2.41,0.07c-0.05-0.01-0.1,0-0.15,0c-1.71,0.03-3.42,0.05-5.14,0.05V394       l37.86-40h57.21C387.55,354,417.13,383.58,417.13,420.07z"/>
					<path id="XMLID_846_" style="fill:#802897;" d="M267.121,434.298L288.397,394H256h-32.407l21.278,40.301l-9.283,76.882       C242.323,511.715,249.128,512,256,512c6.872,0,13.676-0.285,20.412-0.817l-9.283-76.883L267.121,434.298z"/>
					<path id="XMLID_2002_" style="fill:#5C1B6F;" d="M267.13,434.3l9.28,76.88c-3.37,0.26-6.75,0.47-10.15,0.61       c-0.85,0.03-1.7,0.06-2.56,0.09c-0.8,0.03-1.6,0.05-2.41,0.07c-0.05-0.01-0.1,0-0.15,0c-1.71,0.03-3.42,0.05-5.14,0.05V394       h32.4l-21.28,40.3H267.13z"/>
				</g>
				<path id="XMLID_2754_" style="fill:#FFDBA9;" d="M344.034,197.507c-3.676-54.111-49.823-84.822-88.039-84.822      c-38.216,0-84.363,30.711-88.039,84.822c-9.889,1.852-16.907,11.094-15.807,21.256l1.703,15.723      c1.155,10.667,10.828,18.449,21.494,17.294l1.837-0.199c21.836,56.839,57.073,71.472,78.811,74.797      c21.738-3.324,56.975-17.958,78.811-74.797l1.837,0.199c10.667,1.155,20.339-6.627,21.495-17.294l1.703-15.723      C360.941,208.601,353.923,199.359,344.034,197.507z"/>
				<path id="XMLID_2753_" style="fill:#FFC473;" d="M359.838,218.761l-1.697,15.728c-1.16,10.665-10.835,18.444-21.499,17.294      l-1.839-0.198c-21.829,56.832-57.068,71.466-78.803,74.795V112.688c38.209,0,84.357,30.712,88.034,84.819      C353.926,199.355,360.941,208.605,359.838,218.761z"/>
				<polygon id="XMLID_2752_" style="fill:#FFAA20;" points="256,202.324 256,263.27 273.792,263.27 273.792,220.116       312.551,220.116 312.551,202.324     "/>
				<rect id="XMLID_2751_" x="198.121" y="202.324" style="fill:#FFC473;" width="45.375" height="17.792"/>
			</g>
			<path id="XMLID_433_" style="fill:#FFE670;" d="M255.992,76.924c-121.902,0-96.103,124.133-96.103,124.133l8.067-3.551     c21.035-53.327,88.036-36.502,88.036-36.502s67.009-16.825,88.044,36.502l8.067,3.551     C352.103,201.058,377.894,76.924,255.992,76.924z"/>
			<path id="XMLID_1373_" style="fill:#FFD400;" d="M352.1,201.06l-8.06-3.55C323.17,144.62,257.09,160.73,256,161V76.92     c20.38,0,36.63,3.47,49.56,9.25C369.99,114.96,352.1,201.06,352.1,201.06z"/>
			<polygon id="XMLID_2977_" style="fill:#FFF5CB;" points="218.123,354 189.667,366.667 221.671,430.5 256,394    "/>
			<polygon id="XMLID_3036_" style="fill:#FFED97;" points="293.877,354 322.333,366.667 290.379,430.5 256,394    "/>
			<path id="XMLID_2000_" style="fill:#AB3CCC;" d="M225.37,510.18c-49.12-5.85-93.98-25.63-130.51-55.25     c-1.75-1.42-3.48-2.86-5.19-4.33V395c0-22.64,18.35-41,41-41h87.45L225.37,510.18z"/>
			<path id="XMLID_1999_" style="fill:#802897;" d="M422.38,395v55.55c-1.73,1.48-3.48,2.94-5.25,4.38     c-36.52,29.62-81.35,49.39-130.45,55.25L293.93,354h87.45C404.03,354,422.38,372.36,422.38,395z"/>
			<path id="XMLID_1997_" style="fill:#E1B5EC;" d="M225.37,510.18c-1.23-0.15-2.46-0.3-3.68-0.47L181,438.67L198.12,410l-22.45-26     l42.45-30L225.37,510.18z"/>
			<path id="XMLID_1996_" style="fill:#CA80DE;" d="M313.93,410l17.12,28.67l-40.69,71.04c-1.22,0.17-2.45,0.32-3.68,0.47     L293.93,354l42.45,30L313.93,410z"/>
			<g id="XMLID_307_">
				<circle id="XMLID_1165_" style="fill:#FFFFFF;" cx="163.434" cy="248.095" r="7.97"/>
				<circle id="XMLID_359_" style="fill:#FFF5CB;" cx="348.556" cy="248.095" r="7.97"/>
			</g>
		</g>
	</g>
</g>















</svg>
