<?xml version="1.0" encoding="iso-8859-1"?>
<!-- Generator: Adobe Illustrator 19.0.0, SVG Export Plug-In . SVG Version: 6.00 Build 0)  -->
<svg version="1.1" id="Capa_1" xmlns="http://www.w3.org/2000/svg" xmlns:xlink="http://www.w3.org/1999/xlink" x="0px" y="0px"
	 viewBox="0 0 511.999 511.999" style="enable-background:new 0 0 511.999 511.999;" xml:space="preserve">
<path style="fill:#284363;" d="M383.249,7.465c-20.012-10.389-44.026-9.947-63.688,1.405l-169.925,98.106
	c-21.157,12.215-34.191,34.79-34.191,59.22v310.285c0,8.49,4.552,16.329,11.925,20.538l20.127,11.489
	c6.469,4.142,15.058,4.931,22.666,0.554l192.155-110.737c21.183-12.207,34.237-34.796,34.237-59.245V27.565
	C396.556,18.144,390.838,10.705,383.249,7.465z"/>
<g>
	<path style="fill:#212938;" d="M137.455,490.146V178.822c0-24.43,13.033-47.005,34.19-59.219L363.808,8.658
		c6.396-3.693,13.493-3.732,19.442-1.192c-20.012-10.389-44.026-9.947-63.688,1.405l-169.925,98.106
		c-21.157,12.215-34.191,34.79-34.191,59.22v310.285c0,8.49,4.552,16.329,11.925,20.538l20.127,11.489
		C141.594,504.728,137.455,498.156,137.455,490.146z"/>
	<polygon style="fill:#212938;" points="379.751,48.213 157.608,175.737 157.608,248.978 379.751,121 	"/>
	<polygon style="fill:#212938;" points="217.131,252.165 157.277,286.656 157.277,286.656 157.277,343.775 161.877,346.411 
		221.73,311.868 221.73,254.801 	"/>
</g>
<polygon style="fill:#2E527C;" points="161.877,289.293 221.73,254.801 221.73,311.868 161.877,346.411 "/>
<polygon style="fill:#212938;" points="294.863,207.131 235.009,241.623 235.009,241.623 235.009,298.742 239.609,301.378 
	299.462,266.835 299.462,209.767 "/>
<polygon style="fill:#2E527C;" points="239.609,244.259 299.462,209.767 299.462,266.834 239.609,301.378 "/>
<polygon style="fill:#212938;" points="372.595,162.097 312.741,196.589 312.741,196.59 312.741,253.708 317.341,256.344 
	377.194,221.801 377.194,164.733 "/>
<polygon style="fill:#2E527C;" points="317.341,199.225 377.194,164.733 377.194,221.801 317.341,256.344 317.341,199.226 "/>
<polygon style="fill:#212938;" points="217.131,325.176 157.277,359.668 157.277,359.668 157.277,416.787 161.877,419.423 
	221.73,384.88 221.73,327.812 "/>
<polygon style="fill:#2E527C;" points="161.877,362.304 221.73,327.812 221.73,384.88 161.877,419.423 161.877,362.305 "/>
<polygon style="fill:#212938;" points="294.863,280.143 235.009,314.635 235.009,314.635 235.009,371.753 239.609,374.389 
	299.462,339.846 299.462,282.779 "/>
<polygon style="fill:#2E527C;" points="239.609,317.271 299.462,282.779 299.462,339.846 239.609,374.389 "/>
<polygon style="fill:#753316;" points="372.595,235.109 312.741,269.601 312.741,269.601 312.741,399.732 317.341,402.368 
	377.194,367.825 377.194,237.745 "/>
<polygon style="fill:#E9662C;" points="317.341,272.237 377.194,237.745 377.194,367.825 317.341,402.368 "/>
<polygon style="fill:#212938;" points="217.131,398.188 157.277,432.68 157.277,432.68 157.277,489.798 161.877,492.435 
	221.73,457.892 221.73,400.824 "/>
<polygon style="fill:#2E527C;" points="161.877,435.316 221.73,400.824 221.73,457.891 161.877,492.435 "/>
<polygon style="fill:#212938;" points="294.863,353.154 235.009,387.646 235.009,387.646 235.009,444.765 239.609,447.401 
	299.462,412.858 299.462,355.791 "/>
<g>
	<polygon style="fill:#2E527C;" points="239.609,390.282 299.462,355.79 299.462,412.858 239.609,447.401 239.609,390.283 	"/>
	<polygon style="fill:#2E527C;" points="277.633,114.416 270.173,118.722 265.537,121.399 262.714,126.794 265.537,128.928 
		270.173,126.251 277.633,121.944 280.456,116.55 	"/>
	<polygon style="fill:#2E527C;" points="277.633,139.796 270.173,144.103 265.537,146.78 262.714,152.174 265.537,154.308 
		270.173,151.631 277.633,147.324 280.456,141.93 	"/>
	<polygon style="fill:#2E527C;" points="265.105,146.156 265.105,136.209 265.105,130.027 262.281,127.893 259.458,133.287 
		259.458,139.469 259.458,149.416 262.281,151.55 	"/>
	<polygon style="fill:#2E527C;" points="283.895,135.307 283.895,125.361 283.895,119.179 281.072,117.044 278.249,122.439 
		278.249,128.62 278.249,138.567 281.072,140.701 	"/>
	<polygon style="fill:#2E527C;" points="277.633,165.176 270.173,169.483 265.537,172.16 262.714,177.554 265.537,179.689 
		270.173,177.012 277.633,172.705 280.456,167.311 	"/>
	<polygon style="fill:#2E527C;" points="283.895,160.687 283.895,150.741 283.895,144.559 281.072,142.425 278.249,147.819 
		278.249,154.001 278.249,163.947 281.072,166.081 	"/>
	<polygon style="fill:#2E527C;" points="307.383,97.24 299.923,101.546 295.287,104.223 292.463,109.617 295.287,111.752 
		299.923,109.075 307.383,104.768 310.206,99.374 	"/>
	<polygon style="fill:#2E527C;" points="307.383,122.62 299.923,126.927 295.287,129.604 292.463,134.998 295.287,137.132 
		299.923,134.455 307.383,130.148 310.206,124.754 	"/>
	<polygon style="fill:#2E527C;" points="294.854,128.98 294.854,119.033 294.854,112.851 292.031,110.717 289.208,116.111 
		289.208,122.293 289.208,132.239 292.031,134.374 	"/>
	<polygon style="fill:#2E527C;" points="313.645,118.131 313.645,108.184 313.645,102.003 310.822,99.868 307.999,105.262 
		307.999,111.444 307.999,121.391 310.822,123.525 	"/>
	<polygon style="fill:#2E527C;" points="307.383,148 299.923,152.307 295.287,154.984 292.463,160.378 295.287,162.512 
		299.923,159.836 307.383,155.529 310.206,150.135 	"/>
	<polygon style="fill:#2E527C;" points="313.645,143.511 313.645,133.565 313.645,127.383 310.822,125.249 307.999,130.643 
		307.999,136.825 307.999,146.771 310.822,148.905 	"/>
	<polygon style="fill:#2E527C;" points="337.133,80.063 329.673,84.37 325.036,87.047 322.213,92.441 325.036,94.576 
		329.673,91.899 337.133,87.592 339.956,82.198 	"/>
	<polygon style="fill:#2E527C;" points="337.133,105.444 329.673,109.751 325.036,112.428 322.213,117.822 325.036,119.956 
		329.673,117.279 337.133,112.972 339.956,107.578 	"/>
	<polygon style="fill:#2E527C;" points="324.604,111.803 324.604,101.857 324.604,95.675 321.781,93.541 318.958,98.935 
		318.958,105.117 318.958,115.063 321.781,117.198 	"/>
	<polygon style="fill:#2E527C;" points="343.395,100.955 343.395,91.008 343.395,84.826 340.572,82.692 337.748,88.086 
		337.748,94.268 337.748,104.215 340.572,106.349 	"/>
	<polygon style="fill:#2E527C;" points="337.133,130.824 329.673,135.131 325.036,137.808 322.213,143.202 325.036,145.336 
		329.673,142.66 337.133,138.353 339.956,132.958 	"/>
	<polygon style="fill:#2E527C;" points="343.395,126.335 343.395,116.389 343.395,110.207 340.572,108.073 337.748,113.467 
		337.748,119.649 337.748,129.595 340.572,131.729 	"/>
	<polygon style="fill:#2E527C;" points="366.882,62.887 359.423,67.194 354.786,69.871 351.963,75.265 354.786,77.4 359.423,74.723 
		366.882,70.416 369.705,65.022 	"/>
	<polygon style="fill:#2E527C;" points="366.882,88.268 359.423,92.575 354.786,95.251 351.963,100.646 354.786,102.78 
		359.423,100.103 366.882,95.796 369.705,90.402 	"/>
	<polygon style="fill:#2E527C;" points="354.354,94.627 354.354,84.681 354.354,78.499 351.531,76.365 348.707,81.759 
		348.707,87.941 348.707,97.887 351.531,100.022 	"/>
	<polygon style="fill:#2E527C;" points="265.105,171.618 265.105,161.672 265.105,155.49 262.281,153.355 259.458,158.75 
		259.458,164.932 259.458,174.878 262.281,177.012 	"/>
	<polygon style="fill:#2E527C;" points="294.854,154.442 294.854,144.496 294.854,138.314 292.031,136.179 289.208,141.574 
		289.208,147.756 289.208,157.702 292.031,159.836 	"/>
	<polygon style="fill:#2E527C;" points="324.604,137.266 324.604,127.32 324.604,121.138 321.781,119.003 318.958,124.398 
		318.958,130.579 318.958,140.526 321.781,142.66 	"/>
	<polygon style="fill:#2E527C;" points="354.354,120.09 354.354,110.143 354.354,103.962 351.531,101.827 348.707,107.221 
		348.707,113.403 348.707,123.35 351.531,125.484 	"/>
	<polygon style="fill:#2E527C;" points="373.145,83.779 373.145,73.832 373.145,67.65 370.321,65.516 367.498,70.91 367.498,77.092 
		367.498,87.039 370.321,89.173 	"/>
	<polygon style="fill:#2E527C;" points="366.882,113.648 359.423,117.955 354.786,120.632 351.963,126.026 354.786,128.16 
		359.423,125.483 366.882,121.177 369.705,115.782 	"/>
	<polygon style="fill:#2E527C;" points="373.145,109.159 373.145,99.213 373.145,93.031 370.321,90.896 367.498,96.291 
		367.498,102.473 367.498,112.419 370.321,114.553 	"/>
</g>
<g style="opacity:0.2;">
	<polygon style="fill:#FFFFFF;" points="277.335,180.002 370.592,126.277 379.751,100.775 379.751,48.213 310.362,88.047 	"/>
</g>
<g style="opacity:0.2;">
	<polygon style="fill:#FFFFFF;" points="271.02,110.631 189.491,157.435 157.608,246.206 157.608,248.978 237.957,202.688 	"/>
</g>
<g>
</g>
<g>
</g>
<g>
</g>
<g>
</g>
<g>
</g>
<g>
</g>
<g>
</g>
<g>
</g>
<g>
</g>
<g>
</g>
<g>
</g>
<g>
</g>
<g>
</g>
<g>
</g>
<g>
</g>
</svg>
