<?xml version="1.0" encoding="iso-8859-1"?>
<!-- Generator: Adobe Illustrator 19.0.0, SVG Export Plug-In . SVG Version: 6.00 Build 0)  -->
<svg version="1.1" id="Layer_1" xmlns="http://www.w3.org/2000/svg" xmlns:xlink="http://www.w3.org/1999/xlink" x="0px" y="0px"
	 viewBox="0 0 512 512" style="enable-background:new 0 0 512 512;" xml:space="preserve">
<g>
	<g>
		<path d="M374.872,405.63v-82.025c-0.001-12.294-10.003-22.296-22.297-22.296H65.006c-12.294,0-22.297,10.002-22.297,22.296v82.025
			c-9.21,3.131-15.858,11.858-15.858,22.114c0,12.879,10.478,23.356,23.355,23.356h317.168c12.878,0,23.355-10.478,23.355-23.356
			C390.73,417.488,384.082,408.761,374.872,405.63z M57.704,323.604c0-4.026,3.275-7.301,7.302-7.301h287.569
			c4.026,0,7.302,3.275,7.302,7.301v80.784H57.704V323.604z M367.373,436.105H50.207c-4.609,0-8.36-3.751-8.36-8.361
			c0-4.609,3.751-8.36,8.36-8.36h317.168c4.609,0,8.36,3.751,8.36,8.36C375.734,432.354,371.984,436.105,367.373,436.105z"/>
	</g>
</g>
<g>
	<g>
		<path d="M389.725,330.059h-6.517v14.995h6.517c8.478,0,8.478,2.027,8.478,4.833v100.207c0,6.833-4.596,14.92-8.478,14.92H27.856
			c-4.428,0-10.528-8.645-10.528-14.92V349.888c0-1.568,0-4.833,10.528-4.833h6.467v-14.995h-6.467
			c-6.669,0-12.156,1.201-16.309,3.569c-5.942,3.388-9.214,9.163-9.214,16.261v100.207c0,6.3,2.592,13.513,6.934,19.293
			c5.069,6.751,11.846,10.622,18.59,10.622h6.467V512h14.995v-31.99h325.894V512h14.995v-32.008
			c14.808-0.374,22.993-17.802,22.993-29.897V349.888C413.198,342.482,410.148,330.059,389.725,330.059z"/>
	</g>
</g>
<g>
	<g>
		<rect x="82.303" y="346.057" width="15.995" height="14.995"/>
	</g>
</g>
<g>
	<g>
		<rect x="319.226" y="346.057" width="16.994" height="14.995"/>
	</g>
</g>
<g>
	<g>
		<rect x="201.264" y="346.057" width="15.995" height="14.995"/>
	</g>
</g>
<g>
	<g>
		<path d="M3.063,173.578h244.941V0H3.063V173.578z M18.058,14.995h214.951v143.588H18.058V14.995z"/>
	</g>
</g>
<g>
	<g>
		<path d="M26.851,23.787v126.004h197.366V23.787H26.851z M209.222,134.796H41.846V38.782h167.375V134.796z"/>
	</g>
</g>
<g>
	<g>
		<path d="M256.797,174.442v110.145h141.862V174.442H256.797z M383.664,269.592H271.792v-80.155h111.872V269.592z"/>
	</g>
</g>
<g>
	<g>
		<path d="M280.583,198.229v62.57h94.287v-62.57H280.583z M359.876,245.804h-64.297v-32.579h64.297V245.804z"/>
	</g>
</g>
<g>
	<g>
		<path d="M327.728,31.717c-34.74,0-63.001,28.262-63.001,63.001c0,34.74,28.262,63.001,63.001,63.001
			c34.739,0,63.001-28.263,63.001-63.001C390.73,59.979,362.468,31.717,327.728,31.717z M335.224,142.137v-8.013h-14.995v8.012
			c-20.169-3.178-36.194-18.961-39.754-39.002h8.764V88.138h-9.056c2.881-20.908,19.265-37.563,40.046-40.837v10.846h14.995V47.302
			c20.782,3.273,37.168,19.929,40.048,40.837h-10.058v14.995h9.767C371.421,123.176,355.395,138.96,335.224,142.137z"/>
	</g>
</g>
<g>
	<g>
		<polygon points="320.229,70.144 320.229,88.138 295.237,88.138 295.237,103.133 335.224,103.133 335.224,70.144 		"/>
	</g>
</g>
<g>
	<g>
		<path d="M470.18,472.752v-0.001V296.07h-14.995v176.681H415.38v38.782h94.286v-38.782H470.18z M494.672,496.539h-64.296v-8.792
			h64.296V496.539z"/>
	</g>
</g>
<g>
	<g>
		<path d="M431.238,103.079v173.578h23.946v12.415h14.995v-12.414h23.629V103.079H431.238z M478.814,238.089h-23.629v14.995h23.629
			v8.579h-32.58V118.074h32.58V238.089z"/>
	</g>
</g>
<g>
	<g>
		<rect x="94.497" y="63.436" transform="matrix(0.7071 -0.7071 0.7071 0.7071 -19.1957 95.5239)" width="22.426" height="14.995"/>
	</g>
</g>
<g>
	<g>
		
			<rect x="86.286" y="75.327" transform="matrix(0.7071 -0.7071 0.7071 0.7071 -21.7981 113.0239)" width="78.494" height="14.995"/>
	</g>
</g>
<g>
	<g>
		
			<rect x="134.14" y="95.154" transform="matrix(0.7071 -0.7071 0.7071 0.7071 -30.0125 132.8461)" width="22.426" height="14.995"/>
	</g>
</g>
<g>
</g>
<g>
</g>
<g>
</g>
<g>
</g>
<g>
</g>
<g>
</g>
<g>
</g>
<g>
</g>
<g>
</g>
<g>
</g>
<g>
</g>
<g>
</g>
<g>
</g>
<g>
</g>
<g>
</g>
</svg>
