<?xml version="1.0" encoding="iso-8859-1"?>
<!-- Generator: Adobe Illustrator 19.0.0, SVG Export Plug-In . SVG Version: 6.00 Build 0)  -->
<svg version="1.1" id="Layer_1" xmlns="http://www.w3.org/2000/svg" xmlns:xlink="http://www.w3.org/1999/xlink" x="0px" y="0px"
	 viewBox="0 0 512.001 512.001" style="enable-background:new 0 0 512.001 512.001;" xml:space="preserve">
<path style="fill:#77767E;" d="M483.64,146.515L232.23,1.32c-2.674-1.544-5.098-1.687-6.848-0.671l-4.465,2.595
	c0.005-0.003,0.011-0.005,0.017-0.008c-1.738,1-2.816,3.139-2.825,6.185l-0.608,214.386c-0.017,6.057,4.209,13.424,9.464,16.537
	c-5.336-2.902-13.699-2.853-18.885,0.161L22.721,348.224c-2.632,1.53-3.944,3.532-3.941,5.537c0-0.006-0.001-0.014-0.001-0.02
	l-0.015,5.165c-0.006,2.025,1.331,4.052,4.007,5.597L274.18,509.698c5.318,3.07,13.908,3.07,19.189,0.001l185.359-107.719
	c2.625-1.526,3.938-3.521,3.944-5.52l0.015-5.165c0,0.059-0.005,0.116-0.007,0.174c0.083-2.012-1.163-4.042-3.734-5.61
	c2.577,1.353,4.891,1.39,6.557,0.335c-0.049,0.031-0.097,0.065-0.147,0.094l4.466-2.595c1.727-1.004,2.798-3.139,2.808-6.172
	l0.608-214.386C493.254,157.024,488.958,149.585,483.64,146.515z"/>
<g style="enable-background:new    ;">
	<path style="fill:#ACABB1;" d="M220.918,3.245l4.466-2.595c1.75-1.017,4.173-0.874,6.847,0.671l-4.466,2.595
		C225.091,2.371,222.668,2.228,220.918,3.245z"/>
	<path style="fill:#57565C;" d="M489.821,383.694l-4.466,2.595c1.728-1.004,2.799-3.139,2.808-6.172l4.465-2.594
		C492.62,380.555,491.548,382.69,489.821,383.694z"/>
	<polygon style="fill:#77767E;" points="488.77,165.73 493.236,163.135 492.628,377.521 488.163,380.116 	"/>
	<polygon style="fill:#C6C5CB;" points="227.766,3.916 232.23,1.32 483.64,146.515 479.175,149.109 	"/>
	<path style="fill:#ACABB1;" d="M479.175,149.109l4.465-2.595c5.318,3.07,9.613,10.51,9.596,16.621l-4.466,2.595
		C488.788,159.62,484.492,152.18,479.175,149.109z"/>
	<path style="fill:#1D1D1F;" d="M479.175,149.109c5.318,3.07,9.613,10.51,9.596,16.621l-0.608,214.386
		c-0.018,6.107-4.34,8.571-9.659,5.501L227.095,240.423c-5.315-3.069-9.611-10.508-9.593-16.616l0.607-214.386
		c0.018-6.11,4.34-8.574,9.656-5.505L479.175,149.109z"/>
</g>
<path style="fill:#C6C5CB;" d="M18.764,358.906l0.015-5.165c-0.005,2.025,1.331,4.052,4.007,5.597l-0.015,5.165
	C20.095,362.958,18.759,360.93,18.764,358.906z"/>
<path style="fill:#57565C;" d="M482.688,391.296l-0.015,5.165c-0.005,1.999-1.32,3.995-3.944,5.52l0.015-5.165
	C481.369,395.29,482.683,393.294,482.688,391.296z"/>
<polygon style="fill:#77767E;" points="478.745,396.816 478.73,401.981 293.37,509.7 293.384,504.535 "/>
<polygon style="fill:#898890;" points="274.195,504.534 274.18,509.698 22.771,364.504 22.786,359.339 "/>
<path style="fill:#57565C;" d="M293.384,504.535l-0.015,5.165c-5.281,3.069-13.872,3.069-19.189-0.001l0.015-5.165
	C279.514,507.604,288.104,507.604,293.384,504.535z"/>
<path style="fill:#ACABB1;" d="M478.682,385.699c5.317,3.071,5.346,8.047,0.063,11.117l-185.36,107.719
	c-5.281,3.069-13.871,3.069-19.189-0.001L22.786,359.339c-5.318-3.07-5.346-8.047-0.065-11.115L208.08,240.504
	c5.283-3.07,13.874-3.071,19.192,0L478.682,385.699z"/>
<path style="fill:#898890;" d="M460.622,388.174L224.108,251.622c-3.883-2.241-10.159-2.241-14.017,0l-99.935,58.076
	c-3.858,2.241-3.837,5.877,0.046,8.12l236.514,136.552c3.883,2.241,10.159,2.241,14.017,0l99.935-58.076
	C464.526,394.052,464.505,390.416,460.622,388.174"/>
<path style="fill:#C6C5CB;" d="M248.744,407.127l-72.47-41.84c-2.635-1.521-6.897-1.526-9.522,0l-51.618,29.997
	c-2.625,1.526-2.611,3.998,0.024,5.519l72.47,41.84c2.641,1.526,6.905,1.521,9.528-0.004l51.618-29.997
	C251.4,411.117,251.386,408.652,248.744,407.127"/>
<g>
	<polygon style="fill:#3E3D43;" points="425.993,373.777 423.771,375.069 423.777,372.499 403.279,360.664 401.057,361.954 
		401.065,359.386 380.567,347.552 360.202,359.387 360.196,361.313 358.537,360.354 338.173,372.189 338.159,377.277 
		358.656,389.112 360.878,387.821 360.87,390.39 381.369,402.225 383.59,400.934 383.583,403.504 404.082,415.338 424.446,403.505 
		424.451,401.579 426.111,402.537 446.476,390.702 446.491,385.612 	"/>
	<path style="fill:#3E3D43;" d="M369.269,409.256l0.015-5.089l-20.5-11.835l-20.366,11.835l-0.007,2.544l-2.192-1.265l-2.221,1.29
		l0.007-2.568l-20.497-11.834l-20.366,11.835l-0.015,5.089l20.497,11.834l2.221-1.29l-0.007,2.568l20.5,11.835l2.221-1.291
		l-0.007,2.569l20.5,11.835l20.366-11.835l0.015-5.089l-18.328-10.582L369.269,409.256z M346.732,419.839l-0.021,0.013v-0.024
		L346.732,419.839z"/>
	<polygon style="fill:#3E3D43;" points="223.919,283.229 223.912,285.798 244.41,297.632 246.631,296.341 246.624,298.91 
		267.122,310.746 269.345,309.454 269.337,312.023 289.836,323.859 292.057,322.568 292.05,325.137 312.548,336.971 
		314.768,335.681 314.761,338.249 335.26,350.084 355.626,338.249 355.641,333.16 335.141,321.325 332.921,322.615 332.928,320.047 
		312.431,308.213 310.209,309.503 310.216,306.935 289.718,295.099 287.495,296.39 287.503,293.821 267.004,281.985 
		264.783,283.277 264.79,280.707 244.293,268.873 242.072,270.164 242.08,267.595 221.58,255.76 201.214,267.595 201.2,272.685 
		221.699,284.52 	"/>
	<path style="fill:#3E3D43;" d="M301.132,369.917l0.007-2.544l2.193,1.266l20.364-11.834l0.015-5.089l-20.5-11.835l-2.221,1.29
		l0.007-2.568L280.5,326.769l-2.221,1.29l0.007-2.568l-20.5-11.835l-2.221,1.291l0.007-2.569l-20.5-11.835l-2.221,1.29l0.007-2.568
		l-20.497-11.834l-2.221,1.29l0.007-2.568l-20.5-11.835l-20.364,11.834l-0.007,2.544l-2.192-1.266l-20.366,11.835l-0.007,2.543
		l-2.192-1.265l-20.366,11.835l-0.015,5.089l20.5,11.835l2.221-1.29l-0.007,2.568l88.634,51.173l2.221-1.29l-0.007,2.568
		l20.5,11.835l20.366-11.835l0.007-2.543l2.192,1.265L301.132,369.917z"/>
</g>
<polygon style="fill:#1D1D1F;" points="401.065,359.386 401.05,364.474 380.684,376.31 380.699,371.221 "/>
<polygon style="fill:#2E2E30;" points="380.699,371.221 380.684,376.31 360.187,364.476 360.202,359.387 "/>
<polygon style="fill:#3E3D43;" points="360.202,359.387 380.567,347.552 401.065,359.386 380.699,371.221 "/>
<polygon style="fill:#1D1D1F;" points="423.777,372.499 423.764,377.588 403.398,389.423 403.412,384.335 "/>
<polygon style="fill:#2E2E30;" points="403.412,384.335 403.398,389.423 382.898,377.588 382.913,372.499 "/>
<polygon style="fill:#3E3D43;" points="382.913,372.499 403.279,360.664 423.777,372.499 403.412,384.335 "/>
<polygon style="fill:#1D1D1F;" points="446.491,385.612 446.476,390.702 426.111,402.537 426.125,397.448 "/>
<polygon style="fill:#2E2E30;" points="426.125,397.448 426.111,402.537 405.612,390.702 405.627,385.612 "/>
<polygon style="fill:#3E3D43;" points="425.993,373.777 446.491,385.612 426.125,397.448 405.627,385.612 "/>
<polygon style="fill:#1D1D1F;" points="379.034,372.189 379.02,377.277 358.656,389.112 358.671,384.023 "/>
<polygon style="fill:#2E2E30;" points="358.671,384.023 358.656,389.112 338.159,377.277 338.173,372.189 "/>
<polygon style="fill:#3E3D43;" points="338.173,372.189 358.537,360.354 379.034,372.189 358.671,384.023 "/>
<polygon style="fill:#1D1D1F;" points="401.747,385.302 401.732,390.391 381.369,402.225 381.383,397.136 "/>
<polygon style="fill:#2E2E30;" points="381.383,397.136 381.369,402.225 360.87,390.39 360.884,385.301 "/>
<polygon style="fill:#3E3D43;" points="360.884,385.301 381.248,373.467 401.747,385.302 381.383,397.136 "/>
<polygon style="fill:#1D1D1F;" points="424.461,398.415 424.446,403.505 404.082,415.338 404.097,410.25 "/>
<polygon style="fill:#2E2E30;" points="404.097,410.25 404.082,415.338 383.583,403.503 383.597,398.414 "/>
<polygon style="fill:#3E3D43;" points="383.597,398.414 403.961,386.581 424.461,398.415 404.097,410.25 "/>
<polygon style="fill:#1D1D1F;" points="369.284,404.167 369.269,409.256 348.903,421.091 348.918,416.003 "/>
<polygon style="fill:#2E2E30;" points="348.918,416.003 348.903,421.091 328.404,409.257 328.418,404.167 "/>
<polygon style="fill:#3E3D43;" points="328.418,404.167 348.784,392.332 369.284,404.167 348.918,416.003 "/>
<polygon style="fill:#1D1D1F;" points="324.006,404.167 323.991,409.257 303.625,421.092 303.64,416.003 "/>
<polygon style="fill:#2E2E30;" points="303.64,416.003 303.625,421.092 283.128,409.258 283.142,404.17 "/>
<polygon style="fill:#3E3D43;" points="283.142,404.17 303.508,392.334 324.006,404.167 303.64,416.003 "/>
<polygon style="fill:#1D1D1F;" points="346.718,417.281 346.704,422.37 326.338,434.206 326.353,429.116 "/>
<polygon style="fill:#2E2E30;" points="326.353,429.116 326.338,434.206 305.839,422.37 305.853,417.282 "/>
<polygon style="fill:#3E3D43;" points="305.853,417.282 326.219,405.446 346.718,417.281 326.353,429.116 "/>
<polygon style="fill:#1D1D1F;" points="369.432,430.395 369.417,435.484 349.052,447.319 349.066,442.23 "/>
<polygon style="fill:#2E2E30;" points="349.066,442.23 349.052,447.319 328.552,435.484 328.567,430.395 "/>
<polygon style="fill:#3E3D43;" points="328.567,430.395 348.932,418.56 369.432,430.395 349.066,442.23 "/>
<polygon style="fill:#1D1D1F;" points="242.08,267.595 242.065,272.685 221.699,284.52 221.714,279.43 "/>
<polygon style="fill:#2E2E30;" points="221.714,279.43 221.699,284.52 201.2,272.685 201.214,267.595 "/>
<polygon style="fill:#3E3D43;" points="201.214,267.595 221.58,255.76 242.08,267.595 221.714,279.43 "/>
<polygon style="fill:#1D1D1F;" points="264.79,280.707 264.775,285.797 244.41,297.632 244.424,292.543 "/>
<polygon style="fill:#2E2E30;" points="244.424,292.543 244.41,297.632 223.912,285.798 223.927,280.708 "/>
<polygon style="fill:#3E3D43;" points="264.79,280.707 244.424,292.543 223.927,280.708 244.293,268.873 "/>
<polygon style="fill:#1D1D1F;" points="287.503,293.821 287.489,298.91 267.122,310.746 267.137,305.656 "/>
<polygon style="fill:#2E2E30;" points="267.137,305.656 267.122,310.746 246.624,298.91 246.638,293.821 "/>
<polygon style="fill:#3E3D43;" points="287.503,293.821 267.137,305.656 246.638,293.821 267.004,281.985 "/>
<polygon style="fill:#1D1D1F;" points="310.216,306.935 310.202,312.023 289.836,323.859 289.851,318.77 "/>
<polygon style="fill:#2E2E30;" points="289.851,318.77 289.836,323.859 269.337,312.023 269.351,306.935 "/>
<polygon style="fill:#3E3D43;" points="310.216,306.935 289.851,318.77 269.351,306.935 289.718,295.099 "/>
<polygon style="fill:#1D1D1F;" points="332.928,320.047 332.913,325.136 312.548,336.971 312.562,331.883 "/>
<polygon style="fill:#2E2E30;" points="312.562,331.883 312.548,336.971 292.05,325.137 292.065,320.048 "/>
<polygon style="fill:#3E3D43;" points="292.065,320.048 312.431,308.213 332.928,320.047 312.562,331.883 "/>
<polygon style="fill:#1D1D1F;" points="355.641,333.16 355.626,338.249 335.26,350.084 335.275,344.996 "/>
<polygon style="fill:#2E2E30;" points="335.275,344.996 335.26,350.084 314.761,338.249 314.775,333.16 "/>
<polygon style="fill:#3E3D43;" points="314.775,333.16 335.141,321.325 355.641,333.16 335.275,344.996 "/>
<polygon style="fill:#1D1D1F;" points="210.148,286.151 210.134,291.241 189.771,303.074 189.785,297.985 "/>
<polygon style="fill:#2E2E30;" points="189.785,297.985 189.771,303.074 169.271,291.239 169.286,286.15 "/>
<polygon style="fill:#3E3D43;" points="169.286,286.15 189.649,274.317 210.148,286.151 189.785,297.985 "/>
<polygon style="fill:#1D1D1F;" points="232.86,299.263 232.845,304.353 212.481,316.186 212.496,311.098 "/>
<polygon style="fill:#2E2E30;" points="212.496,311.098 212.481,316.186 191.984,304.352 191.998,299.263 "/>
<polygon style="fill:#3E3D43;" points="232.86,299.263 212.496,311.098 191.998,299.263 212.362,287.43 "/>
<polygon style="fill:#1D1D1F;" points="255.572,312.377 255.558,317.466 235.195,329.3 235.208,324.211 "/>
<polygon style="fill:#2E2E30;" points="235.208,324.211 235.195,329.3 214.695,317.464 214.71,312.376 "/>
<polygon style="fill:#3E3D43;" points="255.572,312.377 235.208,324.211 214.71,312.376 235.073,300.542 "/>
<polygon style="fill:#1D1D1F;" points="278.286,325.491 278.271,330.58 257.907,342.414 257.922,337.324 "/>
<polygon style="fill:#2E2E30;" points="257.922,337.324 257.907,342.414 237.409,330.578 237.424,325.49 "/>
<polygon style="fill:#3E3D43;" points="278.286,325.491 257.922,337.324 237.424,325.49 257.786,313.656 "/>
<polygon style="fill:#1D1D1F;" points="300.996,338.603 300.983,343.692 280.619,355.526 280.634,350.436 "/>
<polygon style="fill:#2E2E30;" points="280.634,350.436 280.619,355.526 260.122,343.692 260.136,338.603 "/>
<polygon style="fill:#3E3D43;" points="260.136,338.603 280.5,326.769 300.996,338.603 280.634,350.436 "/>
<polygon style="fill:#1D1D1F;" points="323.71,351.716 323.695,356.805 303.332,368.639 303.346,363.55 "/>
<polygon style="fill:#2E2E30;" points="303.346,363.55 303.332,368.639 282.833,356.804 282.847,351.714 "/>
<polygon style="fill:#3E3D43;" points="282.847,351.714 303.21,339.881 323.71,351.716 303.346,363.55 "/>
<polygon style="fill:#1D1D1F;" points="187.585,299.264 187.57,304.353 167.204,316.188 167.219,311.1 "/>
<polygon style="fill:#2E2E30;" points="167.219,311.1 167.204,316.188 146.706,304.353 146.719,299.264 "/>
<polygon style="fill:#3E3D43;" points="146.719,299.264 167.086,287.429 187.585,299.264 167.219,311.1 "/>
<polygon style="fill:#1D1D1F;" points="210.296,312.377 210.282,317.465 189.916,329.301 189.93,324.212 "/>
<polygon style="fill:#2E2E30;" points="189.93,324.212 189.916,329.301 169.418,317.466 169.433,312.378 "/>
<polygon style="fill:#3E3D43;" points="210.296,312.377 189.93,324.212 169.433,312.378 189.799,300.542 "/>
<polygon style="fill:#1D1D1F;" points="233.009,325.49 232.994,330.578 212.628,342.414 212.643,337.325 "/>
<polygon style="fill:#2E2E30;" points="212.643,337.325 212.628,342.414 192.129,330.578 192.144,325.49 "/>
<polygon style="fill:#3E3D43;" points="233.009,325.49 212.643,337.325 192.144,325.49 212.509,313.655 "/>
<polygon style="fill:#1D1D1F;" points="255.723,338.603 255.708,343.692 235.342,355.527 235.357,350.439 "/>
<polygon style="fill:#2E2E30;" points="235.357,350.439 235.342,355.527 214.843,343.692 214.857,338.603 "/>
<polygon style="fill:#3E3D43;" points="255.723,338.603 235.357,350.439 214.857,338.603 235.223,326.768 "/>
<polygon style="fill:#1D1D1F;" points="278.433,351.715 278.419,356.804 258.053,368.639 258.067,363.551 "/>
<polygon style="fill:#2E2E30;" points="258.067,363.551 258.053,368.639 237.556,356.805 237.57,351.716 "/>
<polygon style="fill:#3E3D43;" points="237.57,351.716 257.936,339.881 278.433,351.715 258.067,363.551 "/>
<polygon style="fill:#1D1D1F;" points="301.147,364.829 301.132,369.917 280.766,381.753 280.78,376.664 "/>
<polygon style="fill:#2E2E30;" points="280.78,376.664 280.766,381.753 260.267,369.917 260.281,364.829 "/>
<polygon style="fill:#3E3D43;" points="260.281,364.829 280.647,352.993 301.147,364.829 280.78,376.664 "/>
<polygon style="fill:#1D1D1F;" points="165.019,312.378 165.005,317.466 144.639,329.302 144.654,324.213 "/>
<polygon style="fill:#2E2E30;" points="144.654,324.213 144.639,329.302 124.14,317.466 124.154,312.378 "/>
<polygon style="fill:#3E3D43;" points="124.154,312.378 144.521,300.542 165.019,312.378 144.654,324.213 "/>
<polygon style="fill:#1D1D1F;" points="255.868,364.829 255.853,369.917 235.487,381.753 235.502,376.664 "/>
<polygon style="fill:#2E2E30;" points="235.502,376.664 235.487,381.753 146.853,330.58 146.868,325.491 "/>
<polygon style="fill:#3E3D43;" points="146.868,325.491 167.234,313.656 255.868,364.829 235.502,376.664 "/>
<polygon style="fill:#1D1D1F;" points="278.581,377.942 278.567,383.031 258.201,394.866 258.215,389.777 "/>
<polygon style="fill:#2E2E30;" points="258.215,389.777 258.201,394.866 237.701,383.032 237.716,377.942 "/>
<polygon style="fill:#3E3D43;" points="237.716,377.942 258.082,366.107 278.581,377.942 258.215,389.777 "/>
<g style="enable-background:new    ;">
	<g>
		<g>
			<path style="fill:#57565C;" d="M312.434,211.3l0.302-106.414l124.907,72.116l-0.302,106.414L312.434,211.3 M469.393,170.095
				L288.488,65.649l-0.518,182.9l-51.256-29.592l0.518-182.9l-0.518,182.9l232.16,134.038L469.393,170.095"/>
			<path style="fill:#77767E;" d="M272.901,206.824l-5.611-3.24l-0.019,6.448l-5.611-3.24l-0.019,6.448l11.223,6.479
				L272.901,206.824 M247.852,198.82l0.064-22.315l19.42,11.212l-0.031,11.159l9.712,5.607l-0.064,22.315l-19.42-11.212
				l0.031-11.159L247.852,198.82 M242.02,163.293l0.061-21.526l19.423,11.215l-0.061,21.526L242.02,163.293 M263.573,175.735
				l0.061-21.526l19.423,11.214l-0.061,21.526L263.573,175.735 M242.088,139.32l0.061-21.526l19.423,11.215l-0.061,21.526
				L242.088,139.32 M263.641,151.763l0.061-21.526l19.423,11.215l-0.061,21.526L263.641,151.763 M242.156,115.348l0.061-21.521
				l19.423,11.215l-0.061,21.521L242.156,115.348 M263.709,127.792l0.061-21.521l19.423,11.215l-0.061,21.521L263.709,127.792
				 M242.224,91.375l0.061-21.521l19.423,11.215l-0.061,21.521L242.224,91.375 M263.777,103.819l0.061-21.521l19.423,11.215
				l-0.061,21.521L263.777,103.819 M242.292,67.404l0.061-21.521l19.423,11.215l-0.061,21.521L242.292,67.404 M263.844,79.847
				l0.061-21.521l19.423,11.215l-0.061,21.52L263.844,79.847 M288.488,65.649l-51.256-29.592l-0.518,182.9l51.256,29.592
				L288.488,65.649"/>
			<g>
				<polyline style="fill:#898890;" points="261.777,57.096 242.353,45.882 242.292,67.404 261.716,78.619 261.777,57.096 				"/>
				<polyline style="fill:#898890;" points="283.329,69.54 263.905,58.326 263.844,79.847 283.268,91.061 283.329,69.54 				"/>
				<polyline style="fill:#898890;" points="261.709,81.069 242.285,69.854 242.224,91.375 261.648,102.59 261.709,81.069 				"/>
				<polyline style="fill:#898890;" points="283.262,93.512 263.837,82.298 263.777,103.819 283.2,115.034 283.262,93.512 				"/>
				<polyline style="fill:#898890;" points="261.641,105.04 242.217,93.827 242.156,115.348 261.58,126.562 261.641,105.04 				"/>
				<polyline style="fill:#898890;" points="283.194,117.484 263.769,106.269 263.709,127.792 283.132,139.005 283.194,117.484 				
					"/>
				<polyline style="fill:#898890;" points="261.573,129.008 242.15,117.794 242.088,139.32 261.512,150.535 261.573,129.008 				
					"/>
				<polyline style="fill:#898890;" points="283.126,141.452 263.701,130.238 263.641,151.763 283.064,162.978 283.126,141.452 				
					"/>
				<polyline style="fill:#898890;" points="261.505,152.981 242.082,141.766 242.02,163.293 261.444,174.506 261.505,152.981 				
					"/>
				<polyline style="fill:#898890;" points="283.058,165.424 263.633,154.21 263.573,175.735 282.996,186.95 283.058,165.424 				
					"/>
			</g>
			<polyline style="fill:#3E3D43;" points="277.015,204.484 267.303,198.876 267.289,203.583 272.901,206.824 272.865,219.72 
				261.642,213.24 261.66,206.792 257.564,204.427 257.531,215.587 276.951,226.799 277.015,204.484 			"/>
			<g>
				<polyline style="fill:#FFFFFF;" points="267.334,187.717 247.915,176.505 247.852,198.82 257.564,204.427 261.66,206.792 
					267.272,210.031 267.289,203.583 267.303,198.876 267.334,187.717 				"/>
				<path style="fill:#FFFFFF;" d="M371.678,176.35l0.009-3.433l6.831,3.944l-0.009,3.433l26.16,15.103
					c0.213-1.545,1.462-2.105,2.965-1.237c1.653,0.954,2.987,3.265,2.982,5.165c-0.001,0.208-0.017,0.402-0.049,0.582l7.564,7.271
					l-5.304-0.573l-2.181,4.838l-2.499-10.158c-0.173-0.064-0.351-0.148-0.534-0.254c-1.505-0.868-2.747-2.868-2.95-4.652
					l-22.212-12.825c12.82,10.895,22.649,28.988,24.267,45.231l3.239,1.87l-0.022,7.849l-6.836-3.947l0.022-7.849l2.738,1.581
					c-1.773-17.327-13.12-36.783-27.355-46.8l-0.009,3.219l-6.831-3.944l0.009-3.219c-14.247-6.427-25.662-0.114-27.527,15.113
					l2.669,1.541l-0.022,7.849l-6.831-3.944l0.022-7.849l3.304,1.908c1.704-14.325,11.604-21.026,24.444-17.108l-24.277-14.016
					c-0.211,1.544-1.461,2.105-2.966,1.237c-1.653-0.954-2.987-3.265-2.982-5.161c0.005-1.9,1.348-2.664,3.002-1.71
					c1.504,0.868,2.746,2.866,2.949,4.652L371.678,176.35 M437.643,177.003l-124.907-72.116l-0.302,106.414l124.907,72.116
					L437.643,177.003"/>
			</g>
			<g>
				<path style="fill:#010101;" d="M340.511,155.406c-1.653-0.954-2.996-0.189-3.002,1.71c-0.005,1.895,1.329,4.207,2.982,5.161
					c1.505,0.868,2.754,0.307,2.966-1.237l-2.957-1.707l0.003-0.983l2.957,1.707C343.257,158.272,342.015,156.274,340.511,155.406"
					/>
				<path style="fill:#010101;" d="M407.319,197.912l-2.653-1.532c0.203,1.784,1.445,3.782,2.95,4.652
					c0.182,0.106,0.361,0.189,0.534,0.254L407.319,197.912 M407.635,194.16c-1.504-0.868-2.752-0.308-2.965,1.237l2.368,1.367
					l-0.081-0.329l0.736,0.707l0.606,0.35l-0.001,0.232l2.271,2.183c0.031-0.18,0.048-0.374,0.049-0.582
					C410.622,197.426,409.288,195.115,407.635,194.16"/>
			</g>
			<polyline style="fill:#FFFFFF;" points="408.299,198.759 410.736,208.67 412.175,205.474 415.677,205.854 408.299,198.759 			"/>
			<g>
				<path style="fill:#010101;" d="M410.736,208.67l-2.439-9.911l7.38,7.095l-3.502-0.38L410.736,208.67 M408.297,197.724
					l-0.002,0.751l-0.976-0.563l0.83,3.374l2.499,10.158l2.181-4.838l5.304,0.573l-7.564-7.271L408.297,197.724 M406.956,196.434
					l0.082,0.329l0.655,0.378L406.956,196.434"/>
				<path style="fill:#010101;" d="M371.678,176.35l-28.219-16.292l-2.957-1.707l-0.003,0.983l2.957,1.707l24.277,14.016
					c1.287,0.393,2.603,0.892,3.944,1.501L371.678,176.35 M408.297,197.492l-0.606-0.35l-0.655-0.378l-2.368-1.367l-26.16-15.103
					l-0.001,0.208c1.342,0.939,2.657,1.959,3.944,3.053l22.212,12.825l2.653,1.532l0.976,0.563l0.002-0.751L408.297,197.492"/>
				<path style="fill:#010101;" d="M371.678,176.559c-1.342-0.609-2.657-1.109-3.944-1.501c-12.84-3.918-22.74,2.783-24.444,17.108
					l0.858,0.495c1.864-15.227,13.279-21.54,27.527-15.113L371.678,176.559 M378.51,180.502l-0.003,0.988
					c14.237,10.016,25.583,29.472,27.355,46.8l0.859,0.495c-1.617-16.243-11.448-34.336-24.267-45.231
					C381.167,182.462,379.851,181.441,378.51,180.502"/>
			</g>
			<polyline style="fill:#FFFFFF;" points="377.666,177.347 372.537,174.386 372.521,180.279 377.649,183.241 377.666,177.347 			
				"/>
			<path style="fill:#010101;" d="M372.521,180.279l0.017-5.893l5.128,2.961l-0.017,5.893L372.521,180.279 M378.52,176.861
				l-6.831-3.944l-0.009,3.433l-0.001,0.209l-0.003,0.988l-0.009,3.219l6.831,3.944l0.009-3.219l0.003-0.988l0.001-0.208
				L378.52,176.861"/>
			<polyline style="fill:#FFFFFF;" points="345.963,194.687 340.835,191.727 340.818,197.619 345.946,200.58 345.963,194.687 			"/>
			<path style="fill:#010101;" d="M340.818,197.619l0.017-5.893l5.128,2.961l-0.017,5.893L340.818,197.619 M346.818,194.201
				l-2.669-1.541l-0.858-0.495l-3.304-1.908l-0.022,7.849l6.831,3.944L346.818,194.201"/>
			<polyline style="fill:#FFFFFF;" points="409.102,231.141 403.977,228.182 403.96,234.075 409.084,237.033 409.102,231.141 			"/>
			<path style="fill:#010101;" d="M403.96,234.075l0.017-5.893l5.124,2.958l-0.017,5.893L403.96,234.075 M409.96,230.656
				l-3.239-1.87l-0.859-0.495l-2.738-1.581l-0.022,7.849l6.836,3.947L409.96,230.656"/>
		</g>
	</g>
</g>
<g>
</g>
<g>
</g>
<g>
</g>
<g>
</g>
<g>
</g>
<g>
</g>
<g>
</g>
<g>
</g>
<g>
</g>
<g>
</g>
<g>
</g>
<g>
</g>
<g>
</g>
<g>
</g>
<g>
</g>
</svg>
