<svg width="151" height="144" viewBox="0 0 151 144" fill="none" xmlns="http://www.w3.org/2000/svg">
<path d="M150.221 57.0342V130.674C150.221 137.499 143.253 143.023 134.658 143.023H116.586V76.2154H133.161L75.2207 33.7291L17.2707 75.9983L35.1657 76.1456H33.8557V143.023H15.7907C7.1957 143.023 0.220703 137.494 0.220703 130.669V57.0292C0.220703 53.7616 1.8257 50.7885 4.4207 48.5868C4.4457 48.5718 4.4682 48.5494 4.4832 48.5394L5.8857 47.5059C5.93645 47.4692 5.98902 47.4351 6.0432 47.4036L19.4457 37.5508V19.2333H44.3457L64.0832 4.71252L65.2607 3.84881C65.2826 3.83441 65.3035 3.81856 65.3232 3.80138C68.0032 2.04401 71.4707 0.985596 75.2207 0.985596C78.9707 0.985596 82.4382 2.04401 85.1182 3.80138C85.1332 3.81885 85.1407 3.82634 85.1582 3.82634L86.3807 4.72999L144.381 47.3886C144.396 47.3886 144.403 47.3886 144.421 47.4186C144.982 47.7696 145.516 48.1626 146.018 48.5943C146.046 48.6099 146.072 48.6283 146.096 48.6492C148.638 50.8409 150.221 53.799 150.221 57.0342Z" fill="white"/>
</svg>
