<svg width="101" height="78" viewBox="0 0 101 78" fill="none" xmlns="http://www.w3.org/2000/svg">
<path d="M48.7133 20.3422L16.707 46.7031V75.154C16.707 75.8907 16.9997 76.5971 17.5206 77.118C18.0415 77.6389 18.748 77.9316 19.4846 77.9316L38.938 77.8812C39.6722 77.8775 40.3751 77.5833 40.893 77.0628C41.4109 76.5423 41.7017 75.8379 41.7016 75.1037V58.4886C41.7016 57.752 41.9943 57.0455 42.5152 56.5246C43.0361 56.0037 43.7426 55.7111 44.4792 55.7111H55.5895C56.3261 55.7111 57.0326 56.0037 57.5535 56.5246C58.0744 57.0455 58.367 57.752 58.367 58.4886V75.0915C58.3659 75.457 58.4369 75.8191 58.576 76.1571C58.715 76.4951 58.9195 76.8023 59.1775 77.0611C59.4355 77.32 59.7421 77.5254 60.0797 77.6655C60.4172 77.8056 60.7791 77.8777 61.1446 77.8777L80.591 77.9316C81.3277 77.9316 82.0342 77.6389 82.5551 77.118C83.0759 76.5971 83.3686 75.8907 83.3686 75.154V46.684L51.3693 20.3422C50.9931 20.039 50.5245 19.8737 50.0413 19.8737C49.5581 19.8737 49.0895 20.039 48.7133 20.3422V20.3422ZM99.2701 38.2593L84.7574 26.2966V2.25163C84.7574 1.69914 84.5379 1.16928 84.1472 0.778605C83.7565 0.387934 83.2267 0.168457 82.6742 0.168457H72.9527C72.4002 0.168457 71.8704 0.387934 71.4797 0.778605C71.089 1.16928 70.8695 1.69914 70.8695 2.25163V14.8566L55.3273 2.06935C53.8358 0.84198 51.9642 0.170911 50.0326 0.170911C48.101 0.170911 46.2294 0.84198 44.7379 2.06935L0.795078 38.2593C0.584136 38.4336 0.409614 38.6478 0.281485 38.8896C0.153356 39.1315 0.0741306 39.3962 0.0483364 39.6686C0.0225422 39.9411 0.0506843 40.2159 0.131155 40.4775C0.211625 40.7391 0.342847 40.9822 0.517322 41.1931L4.94406 46.5746C5.11806 46.7862 5.33208 46.9614 5.57387 47.0901C5.81566 47.2189 6.08047 47.2987 6.35314 47.325C6.62581 47.3512 6.90099 47.3235 7.16292 47.2433C7.42485 47.1631 7.66839 47.032 7.8796 46.8576L48.7133 13.2247C49.0895 12.9215 49.5581 12.7562 50.0413 12.7562C50.5245 12.7562 50.9931 12.9215 51.3693 13.2247L92.2047 46.8576C92.4156 47.032 92.6587 47.1633 92.9203 47.2437C93.1818 47.3242 93.4567 47.3523 93.7292 47.3266C94.0016 47.3008 94.2663 47.2215 94.5081 47.0934C94.75 46.9653 94.9642 46.7908 95.1385 46.5798L99.5653 41.1983C99.7395 40.9862 99.8702 40.7418 99.9497 40.4791C100.029 40.2164 100.056 39.9405 100.029 39.6674C100.001 39.3943 99.9201 39.1293 99.7899 38.8876C99.6597 38.646 99.4831 38.4324 99.2701 38.2593V38.2593Z" fill="white"/>
</svg>
