<?xml version="1.0" encoding="iso-8859-1"?>
<!-- Generator: Adobe Illustrator 19.0.0, SVG Export Plug-In . SVG Version: 6.00 Build 0)  -->
<svg version="1.1" id="Capa_1" xmlns="http://www.w3.org/2000/svg" xmlns:xlink="http://www.w3.org/1999/xlink" x="0px" y="0px"
	 viewBox="0 0 512 512" style="enable-background:new 0 0 512 512;" xml:space="preserve">
<polygon style="fill:#009F5E;" points="443.122,337.293 443.122,41.459 371.333,0 299.544,41.401 299.544,337.293 371.321,378.747 
	"/>
<polygon style="fill:#00D16D;" points="299.544,41.401 371.437,82.858 443.122,41.459 371.333,0 "/>
<polygon style="fill:#007A6E;" points="371.437,82.858 371.321,378.747 299.544,337.293 299.544,41.401 "/>
<polygon style="fill:#F43834;" points="327.789,403.919 327.789,260.277 256,218.818 184.211,260.219 184.211,403.919 
	255.988,445.374 "/>
<polygon style="fill:#FF5331;" points="184.211,260.219 256.104,301.676 327.789,260.277 256,218.818 "/>
<polygon style="fill:#C40041;" points="256.104,301.676 255.988,445.374 184.211,403.919 184.211,260.219 "/>
<polygon style="fill:#FF9F2C;" points="212.456,470.546 212.456,223.817 140.667,182.358 68.878,223.759 68.878,470.546 
	140.656,512 "/>
<polygon style="fill:#FFD800;" points="68.878,223.759 140.771,265.216 212.456,223.817 140.667,182.358 "/>
<polygon style="fill:#FF812C;" points="140.771,265.216 140.656,512 68.878,470.546 68.878,223.759 "/>
<g>
</g>
<g>
</g>
<g>
</g>
<g>
</g>
<g>
</g>
<g>
</g>
<g>
</g>
<g>
</g>
<g>
</g>
<g>
</g>
<g>
</g>
<g>
</g>
<g>
</g>
<g>
</g>
<g>
</g>
</svg>
