<svg height="512pt" viewBox="0 0 512 512" width="512pt" xmlns="http://www.w3.org/2000/svg"><path d="m436 412c5.519531 0 10-4.480469 10-10s-4.480469-10-10-10-10 4.480469-10 10 4.480469 10 10 10zm0 0"/><path d="m100 352c-33.085938 0-60 26.914062-60 60s26.914062 60 60 60 60-26.914062 60-60-26.914062-60-60-60zm0 100c-22.054688 0-40-17.945312-40-40s17.945312-40 40-40 40 17.945312 40 40-17.945312 40-40 40zm0 0"/><path d="m502 332h-212.148438l144.597657-144.597656c3.90625-3.90625 3.90625-10.238282 0-14.144532l-98.988281-99c-1.875-1.875-4.417969-2.929687-7.070313-2.929687s-5.195313 1.054687-7.070313 2.929687l-141.320312 141.320313v-205.578125c0-5.523438-4.476562-10-10-10h-140c-5.523438 0-10 4.476562-10 10v342.015625c-12.914062 17.210937-20 38.367187-20 59.984375 0 55.140625 44.859375 100 100 100 21.617188 0 42.773438-7.085938 59.984375-20h342.015625c5.523438 0 10-4.476562 10-10v-140c0-5.523438-4.476562-10-10-10zm-244.320312-165.816406 84.847656 84.855468-70.707032 70.707032-84.859374-84.847656zm-59.140626 228.84375c-2.683593-15.550782-9.035156-30.347656-18.539062-43.011719v-93.792969l77.675781 77.667969zm-158.539062-163.027344v-106h120v106zm0 20h120v79.976562c-17.125-12.875-38.042969-19.976562-60-19.976562s-42.875 7.101562-60 19.976562zm159.453125 170.398438 60.546875-60.546876v110.148438h-80.011719c10.8125-14.40625 17.601563-31.546875 19.464844-49.601562zm80.546875-70.398438h106v120h-106zm48.390625-256.527344 84.847656 84.855469-56.566406 56.570313-84.847656-84.859376zm-168.390625-75.472656v86h-120v-86zm-140 392c0-44.445312 36.019531-80 80-80 44.546875 0 80 36.167969 80 80 0 43.617188-35.253906 80-80 80-44.113281 0-80-35.886719-80-80zm472 60h-46v-30c0-5.523438-4.476562-10-10-10s-10 4.476562-10 10v30h-20v-120h86zm0 0"/></svg>