<?xml version="1.0" encoding="iso-8859-1"?>
<!-- Generator: Adobe Illustrator 16.0.0, SVG Export Plug-In . SVG Version: 6.00 Build 0)  -->
<!DOCTYPE svg PUBLIC "-//W3C//DTD SVG 1.1//EN" "http://www.w3.org/Graphics/SVG/1.1/DTD/svg11.dtd">
<svg version="1.1" id="Capa_1" xmlns="http://www.w3.org/2000/svg" xmlns:xlink="http://www.w3.org/1999/xlink" x="0px" y="0px"
	 width="612.059px" height="612.06px" viewBox="0 0 612.059 612.06" style="enable-background:new 0 0 612.059 612.06;"
	 xml:space="preserve">
<g>
	<g>
		<g>
			<path d="M535.607,564.354c0,5.279-4.284,9.564-9.565,9.564c-5.261,0-9.564-4.285-9.564-9.564V9.565
				c0-5.281,4.285-9.565,9.564-9.565c5.281,0,9.565,4.284,9.565,9.565V564.354z"/>
			<path d="M19.18,602.494c0,5.262-4.284,9.565-9.565,9.565c-5.261,0-9.565-4.284-9.565-9.565V9.605
				c0-5.281,4.284-9.565,9.565-9.565c5.281,0,9.565,4.285,9.565,9.565V602.494z"/>
			<path d="M9.595,612.02c-5.261,0-9.565-4.284-9.565-9.563c0-5.281,4.285-9.566,9.565-9.566h592.869
				c5.281,0,9.565,4.285,9.565,9.566c0,5.26-4.284,9.563-9.565,9.563H9.595z"/>
			<path d="M612.03,602.475c0,5.261-4.284,9.564-9.565,9.564c-5.279,0-9.564-4.283-9.564-9.564V66.977
				c0-5.281,4.285-9.565,9.564-9.565c5.281,0,9.565,4.285,9.565,9.565V602.475z"/>
			<path d="M9.595,19.17c-5.28,0-9.565-4.284-9.565-9.565S4.315,0.04,9.595,0.04h516.446c5.281,0,9.565,4.285,9.565,9.565
				c0,5.261-4.284,9.565-9.565,9.565H9.595z"/>
			<path d="M258.233,95.653c-5.281,0-9.565-4.284-9.565-9.565c0-5.281,4.284-9.565,9.565-9.565h191.286
				c5.28,0,9.564,4.284,9.564,9.565c0,5.281-4.284,9.565-9.564,9.565H258.233z"/>
			<path d="M86.098,76.522h0.239h95.354c5.281,0,9.565,4.284,9.565,9.565v0.239v76.283c0,5.281-4.285,9.565-9.565,9.565h-0.219
				H86.098c-5.281,0-9.565-4.284-9.565-9.565v-0.259V86.086C76.532,80.827,80.817,76.522,86.098,76.522L86.098,76.522z
				 M172.146,95.653H95.663v57.392h76.482L172.146,95.653L172.146,95.653z"/>
			<path d="M573.808,564.332c0,5.281-4.284,9.566-9.565,9.566c-5.28,0-9.563-4.285-9.563-9.566V47.846
				c0-5.261,4.283-9.565,9.563-9.565c5.281,0,9.565,4.285,9.565,9.565V564.332z"/>
			<path d="M86.118,248.698c-5.281,0-9.565-4.285-9.565-9.565c0-5.28,4.284-9.565,9.565-9.565h191.266
				c5.281,0,9.565,4.285,9.565,9.565c0,5.28-4.284,9.565-9.565,9.565H86.118z"/>
			<path d="M86.118,325.201c-5.281,0-9.565-4.285-9.565-9.566s4.284-9.565,9.565-9.565h191.266c5.281,0,9.565,4.284,9.565,9.565
				s-4.284,9.566-9.565,9.566H86.118z"/>
			<path d="M86.098,478.285c-5.281,0-9.565-4.285-9.565-9.566c0-5.278,4.285-9.563,9.565-9.563h363.481
				c5.281,0,9.565,4.284,9.565,9.563c0,5.281-4.284,9.566-9.565,9.566H86.098z"/>
			<path d="M353.886,229.567h0.238h95.414c5.28,0,9.564,4.285,9.564,9.565v0.239v152.765c0,5.263-4.284,9.566-9.564,9.566h-0.239
				h-95.413c-5.262,0-9.565-4.285-9.565-9.566v-0.258V239.132C344.321,233.872,348.625,229.567,353.886,229.567L353.886,229.567z
				 M439.974,248.698h-76.522v133.875h76.522V248.698z"/>
			<path d="M258.233,172.175c-5.281,0-9.565-4.284-9.565-9.565c0-5.261,4.284-9.565,9.565-9.565h191.286
				c5.28,0,9.564,4.284,9.564,9.565c0,5.281-4.284,9.565-9.564,9.565H258.233z"/>
			<path d="M86.118,401.723c-5.281,0-9.565-4.285-9.565-9.563c0-5.281,4.284-9.566,9.565-9.566h191.266
				c5.281,0,9.565,4.285,9.565,9.566c0,5.26-4.284,9.563-9.565,9.563H86.118z"/>
		</g>
	</g>
</g>
<g>
</g>
<g>
</g>
<g>
</g>
<g>
</g>
<g>
</g>
<g>
</g>
<g>
</g>
<g>
</g>
<g>
</g>
<g>
</g>
<g>
</g>
<g>
</g>
<g>
</g>
<g>
</g>
<g>
</g>
</svg>
