<svg xmlns="http://www.w3.org/2000/svg" height="512pt" version="1.1" viewBox="-12 0 512 512.00024" width="512pt">
<g id="surface1">
<path d="M 473.875 460.480469 L 437.429688 460.480469 L 437.429688 149.5625 C 437.429688 142.34375 431.554688 136.46875 424.335938 136.46875 L 379.730469 136.46875 C 372.507812 136.46875 366.632812 142.34375 366.632812 149.5625 L 366.632812 188.382812 C 366.632812 192.523438 369.988281 195.882812 374.132812 195.882812 C 378.277344 195.882812 381.632812 192.523438 381.632812 188.382812 L 381.632812 151.46875 L 422.429688 151.46875 L 422.429688 460.480469 L 381.632812 460.480469 L 381.632812 223.277344 C 381.632812 219.136719 378.277344 215.777344 374.132812 215.777344 C 369.988281 215.777344 366.632812 219.136719 366.632812 223.277344 L 366.632812 460.480469 L 332.316406 460.480469 L 332.316406 231.710938 C 332.316406 224.492188 326.441406 218.617188 319.21875 218.617188 L 274.613281 218.617188 C 267.390625 218.617188 261.515625 224.492188 261.515625 231.710938 L 261.515625 460.480469 L 227.199219 460.480469 L 227.199219 314.289062 C 227.199219 307.066406 221.324219 301.191406 214.101562 301.191406 L 169.496094 301.191406 C 162.273438 301.191406 156.398438 307.066406 156.398438 314.289062 L 156.398438 460.480469 L 122.082031 460.480469 L 122.082031 396.652344 C 122.082031 389.429688 116.207031 383.554688 108.984375 383.554688 L 64.378906 383.554688 C 57.15625 383.554688 51.28125 389.429688 51.28125 396.652344 L 51.28125 412.070312 C 51.28125 416.210938 54.640625 419.570312 58.78125 419.570312 C 62.921875 419.570312 66.28125 416.210938 66.28125 412.070312 L 66.28125 398.554688 L 107.082031 398.554688 L 107.082031 460.480469 L 66.28125 460.480469 L 66.28125 446.964844 C 66.28125 442.824219 62.921875 439.464844 58.78125 439.464844 C 54.640625 439.464844 51.28125 442.824219 51.28125 446.964844 L 51.28125 460.480469 L 14.839844 460.480469 C 7.125 460.480469 0.847656 466.757812 0.847656 474.472656 L 0.847656 498.007812 C 0.847656 505.722656 7.125 512 14.839844 512 L 473.875 512 C 481.589844 512 487.867188 505.722656 487.867188 498.007812 L 487.867188 474.472656 C 487.867188 466.757812 481.589844 460.480469 473.875 460.480469 Z M 276.515625 233.617188 L 317.316406 233.617188 L 317.316406 460.480469 L 276.515625 460.480469 Z M 171.398438 316.191406 L 212.199219 316.191406 L 212.199219 460.480469 L 171.398438 460.480469 Z M 472.867188 497 L 15.847656 497 L 15.847656 475.480469 L 472.867188 475.480469 Z M 472.867188 497 " style=" stroke:none;fill-rule:nonzero;fill:rgb(0%,0%,0%);fill-opacity:1;" />
<path d="M 21.371094 333.515625 C 23.71875 333.515625 26.101562 333.125 28.433594 332.300781 C 47.855469 325.425781 88.101562 309.105469 139.433594 277.039062 C 182.175781 250.34375 224.054688 218.09375 263.917969 181.1875 C 295.121094 152.292969 325.449219 120.105469 354.191406 85.386719 L 366.515625 106.476562 C 368.914062 110.585938 373.625 112.550781 378.234375 111.371094 C 382.84375 110.1875 386.027344 106.199219 386.152344 101.441406 L 388.570312 10.832031 C 388.667969 7.109375 386.855469 3.6875 383.722656 1.679688 C 380.585938 -0.332031 376.71875 -0.550781 373.378906 1.09375 C 373.378906 1.09375 373.378906 1.09375 373.375 1.09375 L 292.0625 41.132812 C 287.792969 43.238281 285.496094 47.792969 286.347656 52.476562 C 287.199219 57.15625 290.949219 60.617188 295.6875 61.078125 L 317.097656 63.183594 C 290.925781 94.390625 263.457031 123.371094 235.296875 149.476562 C 197.492188 184.523438 157.84375 215.121094 117.453125 240.410156 C 67.367188 271.773438 28.585938 286.992188 14.238281 292.078125 C 8.832031 293.996094 4.503906 297.910156 2.054688 303.097656 C -0.390625 308.28125 -0.664062 314.09375 1.289062 319.472656 C 4.421875 328.113281 12.644531 333.519531 21.371094 333.515625 Z M 15.621094 309.503906 C 16.351562 307.957031 17.640625 306.789062 19.25 306.21875 C 34.066406 300.964844 74.070312 285.277344 125.414062 253.125 C 166.601562 227.335938 207.003906 196.164062 245.496094 160.480469 C 277.394531 130.90625 308.40625 97.722656 337.675781 61.839844 C 339.421875 59.699219 339.851562 56.769531 338.789062 54.21875 C 337.726562 51.664062 335.347656 49.90625 332.597656 49.632812 L 312.722656 47.679688 L 373.378906 17.8125 L 371.574219 85.402344 L 361.703125 68.503906 C 360.460938 66.378906 358.253906 65 355.800781 64.8125 C 353.351562 64.625 350.953125 65.652344 349.402344 67.566406 C 319.089844 104.9375 286.902344 139.464844 253.726562 170.179688 C 214.554688 206.449219 173.429688 238.121094 131.488281 264.320312 C 81.367188 295.625 42.273438 311.492188 23.429688 318.160156 C 20.171875 319.3125 16.566406 317.605469 15.390625 314.359375 C 14.8125 312.765625 14.894531 311.042969 15.621094 309.503906 Z M 15.621094 309.503906 " style=" stroke:none;fill-rule:nonzero;fill:rgb(0%,0%,0%);fill-opacity:1;" />
</g>
</svg>