<svg fill="#94aacd" height="481pt" viewBox="0 -45 481.954 481" width="481pt" xmlns="http://www.w3.org/2000/svg"><path d="m245.75 146.949219c2.066406.003906 4.050781-.792969 5.539062-2.226563l51.644532-49.539062 53.503906 42.144531c2.886719 2.277344 6.953125 2.289063 9.859375.035156l74.675781-58.035156-2.5625 33.3125c-.339844 4.40625 2.957032 8.25 7.363282 8.589844.207031.015625.414062.023437.621093.023437 4.175781-.003906 7.648438-3.222656 7.96875-7.386718l3.953125-51.394532c.160156-2.121094-.527344-4.222656-1.917968-5.835937-1.390626-1.613281-3.367188-2.605469-5.488282-2.757813l-55.347656-3.953125c-4.390625-.289062-8.191406 3.023438-8.503906 7.414063-.316406 4.386718 2.972656 8.207031 7.363281 8.546875l34.589844 2.46875-67.589844 52.53125-54.058594-42.578125c-3.132812-2.46875-7.605469-2.25-10.484375.511718l-56.667968 54.359376c-2.355469 2.261718-3.101563 5.726562-1.882813 8.757812 1.21875 3.027344 4.15625 5.011719 7.421875 5.011719zm0 0"/><path d="m473.953125 374.761719h-37.953125v-204.5c0-4.417969-3.921875-7.5-8.339844-7.5h-77.21875c-4.417968 0-8.441406 3.082031-8.441406 7.5v204.5h-49v-165.730469c-.101562-4.523438-3.742188-8.164062-8.265625-8.269531h-77.214844c-4.421875 0-7.519531 3.851562-7.519531 8.269531v165.730469h-50v-93.539063c-.054688-4.546875-3.648438-8.261718-8.191406-8.460937h-77.21875c-4.417969 0-7.589844 4.042969-7.589844 8.460937v93.539063h-41v-366.285157c0-4.417968-3.582031-8-8-8s-8 3.582032-8 8v374.570313c.0234375 2.097656.886719 4.097656 2.402344 5.550781 1.511718 1.449219 3.546875 2.230469 5.644531 2.164063h465.90625c4.417969 0 8-3.582031 8-8s-3.582031-8-8-8zm-400.953125 0v-86h61v86zm143 0v-158h61v158zm142 0v-196h62v196zm0 0"/><path d="m124.691406 163.601562c-8.75-.011718-15.84375-7.105468-15.855468-15.855468 0-4.417969-3.582032-8-8-8-4.417969 0-8 3.582031-8 8 .019531 14.234375 9.472656 26.738281 23.164062 30.640625v7.375c0 4.417969 3.582031 8 8 8s8-3.582031 8-8v-7.015625c15.738281-3.710938 26.203125-18.621094 24.332031-34.683594-1.867187-16.058594-15.46875-28.175781-31.640625-28.171875-8.757812 0-15.855468-7.101563-15.855468-15.855469 0-8.757812 7.097656-15.859375 15.855468-15.855468 8.757813 0 15.855469 7.097656 15.855469 15.855468 0 4.417969 3.582031 8 8 8s8-3.582031 8-8c-.019531-15.15625-10.695313-28.203125-25.546875-31.226562v-7.046875c0-4.417969-3.582031-8-8-8s-8 3.582031-8 8v7.929687c-14.957031 4.773438-24.207031 19.738282-21.789062 35.25 2.417968 15.515625 15.78125 26.953125 31.480468 26.949219 8.757813 0 15.855469 7.101563 15.855469 15.855469 0 8.757812-7.097656 15.855468-15.855469 15.855468zm0 0"/><path d="m124.691406 222.980469c54.417969 0 98.53125-44.113281 98.53125-98.527344 0-54.417969-44.113281-98.53125-98.53125-98.53125-54.417968 0-98.53125 44.113281-98.53125 98.53125.0625 54.390625 44.140625 98.46875 98.53125 98.527344zm0-181.058594c45.582032 0 82.53125 36.949219 82.53125 82.53125 0 45.578125-36.949218 82.527344-82.53125 82.527344-45.578125 0-82.53125-36.949219-82.53125-82.527344.054688-45.558594 36.972656-82.480469 82.53125-82.53125zm0 0"/></svg>